<?xml version="1.0" encoding="utf-8"?><!-- Uploaded to: SVG Repo, www.svgrepo.com, Generator: SVG Repo Mixer Tools -->
<svg fill="#000000" width="800px" height="800px" viewBox="0 0 24 24" id="netflix" data-name="Flat Color" xmlns="http://www.w3.org/2000/svg" class="icon flat-color"><path id="primary" d="M9.85,10.66a1,1,0,0,1,.15.52V21a1,1,0,0,1-1,1H4a1,1,0,0,1-1-1V3a1,1,0,0,1,.73-1,1,1,0,0,1,1.12.44ZM20,2H15a1,1,0,0,0-1,1v9.82a1,1,0,0,0,.15.52l5,8.18A1,1,0,0,0,20,22a.84.84,0,0,0,.27,0A1,1,0,0,0,21,21V3A1,1,0,0,0,20,2Z" style="fill: rgb(0, 0, 0);"></path><path id="secondary" d="M20.85,20.48l-11-18A1,1,0,0,0,9,2H4a1,1,0,0,0-.87.51,1,1,0,0,0,0,1l11,18A1,1,0,0,0,15,22h5a1,1,0,0,0,.87-.51A1,1,0,0,0,20.85,20.48Z" style="fill: rgb(44, 169, 188);"></path></svg>